<?xml version="1.0" standalone="no"?>
<!DOCTYPE svg PUBLIC "-//W3C//DTD SVG 20010904//EN"
 "http://www.w3.org/TR/2001/REC-SVG-20010904/DTD/svg10.dtd">
<svg version="1.0" xmlns="http://www.w3.org/2000/svg"
 width="700.000000pt" height="700.000000pt" viewBox="0 0 700.000000 700.000000"
 preserveAspectRatio="xMidYMid meet">
<metadata>
Created by potrace 1.11, written by Peter Selinger 2001-2013
</metadata>
<g transform="translate(0.000000,700.000000) scale(0.100000,-0.100000)"
fill="#000000" stroke="none">
<path d="M3298 6995 c-1 -1 -41 -5 -88 -9 -100 -7 -225 -22 -295 -36 -27 -5
-61 -12 -75 -14 -289 -53 -601 -157 -877 -293 -122 -60 -342 -186 -428 -246
-56 -39 -270 -200 -275 -208 -3 -3 -25 -23 -50 -44 -84 -69 -229 -214 -365
-365 -93 -103 -287 -374 -355 -495 -153 -272 -219 -414 -301 -652 -33 -98 -81
-259 -95 -326 -20 -90 -53 -272 -59 -322 -4 -33 -9 -69 -11 -80 -19 -100 -26
-567 -11 -715 12 -109 27 -226 41 -295 2 -11 6 -36 10 -55 22 -122 54 -248
102 -400 103 -325 231 -591 430 -890 252 -380 616 -739 994 -982 314 -201 586
-324 975 -441 111 -33 354 -83 458 -93 34 -3 65 -8 68 -9 15 -10 227 -20 409
-20 187 0 339 7 430 21 144 21 295 48 345 61 33 8 67 16 75 18 100 20 358 107
513 172 122 51 339 160 395 198 20 14 40 25 45 25 4 0 13 5 20 10 7 6 64 45
127 87 108 71 250 178 330 248 119 104 294 279 365 365 21 25 41 47 44 50 4 3
45 55 91 115 405 533 651 1169 708 1830 13 159 7 542 -12 695 -2 19 -7 58 -10
86 -4 28 -8 59 -10 70 -2 10 -11 60 -21 109 -68 364 -199 718 -395 1070 -87
156 -278 426 -389 550 -223 248 -372 382 -656 591 -123 90 -395 243 -570 321
-241 107 -577 211 -800 247 -33 5 -223 32 -295 42 -47 6 -526 15 -532 9z m352
-439 c80 -4 154 -8 165 -10 11 -2 47 -7 80 -10 33 -4 71 -9 85 -11 14 -3 41
-7 60 -10 19 -3 42 -8 50 -10 8 -2 29 -7 45 -10 33 -5 36 -6 145 -34 155 -39
339 -105 498 -178 l63 -29 -38 -35 c-215 -200 -358 -461 -408 -750 -16 -91
-23 -324 -11 -379 3 -13 8 -42 12 -65 18 -126 78 -294 151 -420 232 -403 652
-655 1106 -664 94 -2 99 -3 104 -24 32 -143 53 -239 58 -267 3 -19 7 -46 10
-60 2 -14 7 -50 10 -80 3 -30 8 -66 10 -80 37 -225 46 -691 20 -1005 -4 -38
-8 -93 -11 -122 -2 -29 -6 -65 -8 -80 -3 -15 -8 -55 -11 -88 -3 -33 -8 -71
-10 -85 -3 -14 -7 -43 -11 -65 -3 -22 -7 -47 -9 -55 -2 -8 -7 -35 -10 -60 -4
-25 -10 -63 -15 -85 -5 -22 -12 -56 -15 -75 -3 -19 -19 -93 -35 -163 -17 -70
-32 -141 -35 -158 -11 -60 -289 -301 -522 -453 -56 -36 -106 -66 -109 -66 -4
0 -15 -6 -23 -14 -23 -20 -192 -107 -291 -151 -47 -20 -98 -43 -115 -50 -108
-48 -418 -137 -570 -164 -33 -6 -69 -13 -80 -15 -11 -2 -47 -7 -80 -10 -33 -4
-71 -9 -85 -11 -73 -14 -424 -20 -545 -10 -320 27 -695 115 -932 220 l-55 25
35 37 c49 53 82 90 137 153 26 30 59 67 72 81 37 41 88 98 168 189 41 47 77
87 80 90 3 3 37 41 75 85 39 44 75 84 81 90 5 5 44 48 85 95 40 47 76 87 79
90 3 3 39 43 80 90 103 116 131 148 160 179 14 15 54 61 90 101 94 108 154
175 235 265 198 219 244 276 258 323 12 38 15 115 15 396 0 207 -5 365 -11
389 -14 55 -90 132 -143 145 -22 6 -80 13 -131 17 -50 3 -102 8 -115 10 -13 3
-49 10 -80 15 -187 34 -464 150 -693 290 -182 111 -452 314 -595 449 -120 112
-80 106 -640 106 l-485 0 -45 -24 c-50 -26 -82 -59 -107 -111 -14 -31 -16
-107 -16 -740 0 -777 -3 -743 62 -808 18 -18 187 -109 418 -225 l388 -195 3
-642 2 -641 -59 41 c-82 58 -242 193 -331 282 -112 110 -190 197 -267 296 -10
13 -28 36 -39 50 -89 113 -239 359 -317 522 -127 267 -233 613 -262 856 -4 26
-8 51 -10 54 -2 3 -7 46 -10 95 -4 50 -9 106 -11 125 -5 52 -5 304 1 395 11
171 50 402 99 598 25 96 98 306 142 406 43 96 47 101 84 102 19 0 211 1 425 2
366 2 392 3 430 22 55 27 947 920 976 977 22 41 23 54 23 333 l1 290 105 28
c58 15 121 30 140 33 19 3 42 7 50 9 8 2 31 7 50 10 19 3 42 8 50 10 8 2 47 7
85 11 39 3 72 8 76 9 3 2 70 7 150 11 79 3 146 8 147 9 2 2 9 2 15 0 7 -2 77
-6 157 -9z"/>
</g>
</svg>
