<?xml version="1.0" encoding="UTF-8" standalone="no"?>
<svg width="40px" height="46px" viewBox="0 0 40 46" version="1.1" xmlns="http://www.w3.org/2000/svg" xmlns:xlink="http://www.w3.org/1999/xlink">
    <!-- Generator: Sketch 3.8.3 (29802) - http://www.bohemiancoding.com/sketch -->
    <title>Icon</title>
    <desc>Created with Sketch.</desc>
    <defs></defs>
    <g id="Page-1" stroke="none" stroke-width="1" fill="none" fill-rule="evenodd" stroke-linecap="round">
        <g id="Artboard-1" transform="translate(-887.000000, -1169.000000)" stroke="#43484D" stroke-width="4">
            <g id="Icon" transform="translate(889.000000, 1171.000000)">
                <path d="M35.1818,12.8864 L35.1818,15.2034 L35.1818,40.8984 C35.1818,41.5044 34.6858,42.0004 34.0798,42.0004 L1.6618,42.0004 C1.1958,42.0004 0.8178,41.6224 0.8178,41.1564 L0.8178,0.5484 C0.8178,0.2454 1.0638,0.0004 1.3668,0.0004 L21.4008,0.0004" id="Stroke-188"></path>
                <path d="M22,0.9054 C22,0.4224 21.999,0.2944 22.353,0.6224 L34.564,12.0684 C34.917,12.3954 34.738,12.6634 34.279,12.6664 L22.602,12.7544 C22.131,12.7574 22,12.3654 22,11.8854 L22,0.9054 L22,0.9054 Z" id="Stroke-190"></path>
            </g>
        </g>
    </g>
</svg>