<?xml version="1.0" encoding="UTF-8" standalone="no"?>
<svg width="48px" height="41px" viewBox="0 0 48 41" version="1.1" xmlns="http://www.w3.org/2000/svg" xmlns:xlink="http://www.w3.org/1999/xlink">
    <!-- Generator: Sketch 3.8.3 (29802) - http://www.bohemiancoding.com/sketch -->
    <title>Icon</title>
    <desc>Created with Sketch.</desc>
    <defs></defs>
    <g id="Page-1" stroke="none" stroke-width="1" fill="none" fill-rule="evenodd" stroke-linejoin="round">
        <g id="Artboard-1" transform="translate(-184.000000, -474.000000)" stroke="#43484D" stroke-width="4">
            <g id="Icon" transform="translate(186.000000, 475.000000)">
                <path d="M22,35 L22,5" id="Stroke-450"></path>
                <path d="M0,33 L0,1.48 C0,0.94 0.947,1 1.499,1 L14.499,1 C17.536,1 20.804,2.716 22.25,5.118" id="Stroke-451" stroke-linecap="round"></path>
                <path d="M44,33 L44,1.48 C44,0.94 44.052,1 43.499,1 L30.499,1 C27.457,1 23.692,2.703 22.25,5.116" id="Stroke-452" stroke-linecap="round"></path>
                <path d="M1,34 L14.936,34 C17.866,34 20.953,35.338 22.5,37.38" id="Stroke-453" stroke-linecap="round"></path>
                <path d="M44,34 L30.064,34 C27.134,34 24.047,35.338 22.5,37.38" id="Stroke-454" stroke-linecap="round"></path>
            </g>
        </g>
    </g>
</svg>