<?xml version="1.0" encoding="UTF-8" standalone="no"?>
<svg width="44px" height="42px" viewBox="0 0 44 42" version="1.1" xmlns="http://www.w3.org/2000/svg" xmlns:xlink="http://www.w3.org/1999/xlink">
    <!-- Generator: Sketch 3.8.3 (29802) - http://www.bohemiancoding.com/sketch -->
    <title>Icon</title>
    <desc>Created with Sketch.</desc>
    <defs></defs>
    <g id="Page-1" stroke="none" stroke-width="1" fill="none" fill-rule="evenodd" stroke-linecap="round" stroke-linejoin="round">
        <g id="Artboard-1" transform="translate(-327.000000, -471.000000)" stroke="#43484D" stroke-width="4">
            <g id="Icon" transform="translate(329.000000, 473.000000)">
                <path d="M1.6294,16.4442 L19.4384,37.7262 C19.7454,38.0932 20.2474,38.0882 20.5504,37.7262 L38.3584,16.4442 L37.6484,17.3542 C38.6964,16.0432 39.4474,14.4632 39.7904,12.7262 C39.9274,12.0312 40.0004,11.3112 40.0004,10.5742 C40.0004,4.7392 35.4814,0.0082 29.9064,0.0082 C25.3074,0.0082 21.4274,3.2282 20.2104,7.6312 L19.7904,7.6232 C18.5724,3.2192 14.6924,0.0002 10.0934,0.0002 C4.5194,0.0002 0.0004,4.7302 0.0004,10.5662 C0.0004,11.3032 0.0724,12.0222 0.2094,12.7172 C0.5524,14.4542 1.3034,16.0352 2.3524,17.3462" id="Stroke-1"></path>
            </g>
        </g>
    </g>
</svg>