<?xml version="1.0" encoding="UTF-8" standalone="no"?>
<svg width="36px" height="46px" viewBox="0 0 36 46" version="1.1" xmlns="http://www.w3.org/2000/svg" xmlns:xlink="http://www.w3.org/1999/xlink">
    <!-- Generator: Sketch 3.8.3 (29802) - http://www.bohemiancoding.com/sketch -->
    <title>Icon</title>
    <desc>Created with Sketch.</desc>
    <defs></defs>
    <g id="Page-1" stroke="none" stroke-width="1" fill="none" fill-rule="evenodd" stroke-linecap="round" stroke-linejoin="round">
        <g id="Artboard-1" transform="translate(-190.000000, -1030.000000)" stroke="#43484D" stroke-width="4">
            <g id="Icon" transform="translate(192.000000, 1032.000000)">
                <path d="M16,0 C24.837,0 32,6.997 32,15.628 C32,19.129 30.821,22.361 28.831,24.966" id="Stroke-350"></path>
                <path d="M21,15.6279 C21,18.3889 18.761,20.6279 16,20.6279 C13.239,20.6279 11,18.3889 11,15.6279 C11,12.8669 13.239,10.6279 16,10.6279 C18.761,10.6279 21,12.8669 21,15.6279 L21,15.6279 Z" id="Stroke-352"></path>
                <path d="M16,42 L28.831,24.966" id="Stroke-354"></path>
                <path d="M16,0 C7.163,0 0,6.997 0,15.628 C0,19.129 1.179,22.361 3.169,24.966" id="Stroke-356"></path>
                <path d="M16,42 L3.169,24.966" id="Stroke-358"></path>
            </g>
        </g>
    </g>
</svg>