<svg width="44" height="42" viewBox="0 0 44 42" xmlns="http://www.w3.org/2000/svg"><title>Icon</title><path d="M3.63 18.444l17.808 21.282c.307.367.81.362 1.112 0l17.808-21.282-.71.91a10.74 10.74 0 0 0 2.142-4.628c.137-.695.21-1.415.21-2.152C42 6.74 37.481 2.008 31.906 2.008c-4.599 0-8.479 3.22-9.696 7.623l-.42-.008C20.572 5.22 16.692 2 12.093 2 6.52 2 2 6.73 2 12.566c0 .737.072 1.456.21 2.151a10.734 10.734 0 0 0 2.142 4.63" stroke-width="4" fill="none" fill-rule="evenodd" stroke-linecap="round" stroke-linejoin="round"/></svg>