<?xml version="1.0" encoding="UTF-8" standalone="no"?>
<svg width="32px" height="46px" viewBox="0 0 32 46" version="1.1" xmlns="http://www.w3.org/2000/svg" xmlns:xlink="http://www.w3.org/1999/xlink">
    <!-- Generator: Sketch 3.8.3 (29802) - http://www.bohemiancoding.com/sketch -->
    <title>Icon</title>
    <desc>Created with Sketch.</desc>
    <defs></defs>
    <g id="Page-1" stroke="none" stroke-width="1" fill="none" fill-rule="evenodd" stroke-linecap="round" stroke-linejoin="round">
        <g id="Artboard-1" transform="translate(-332.000000, -1308.000000)" stroke="#43484D" stroke-width="4">
            <g id="Icon" transform="translate(334.000000, 1310.000000)">
                <path d="M21,20 C21,23.314 18.314,26 15,26 L13,26 C9.686,26 7,23.314 7,20 L7,6 C7,2.686 9.686,0 13,0 L15,0 C18.314,0 21,2.686 21,6 L21,20 L21,20 Z" id="Stroke-455"></path>
                <path d="M28,21 C28,27.627 21.732,33 14,33 C6.268,33 0,27.627 0,21" id="Stroke-456"></path>
                <path d="M14,34 L14,42" id="Stroke-457"></path>
                <path d="M4,42 L24,42" id="Stroke-458"></path>
            </g>
        </g>
    </g>
</svg>