<?xml version="1.0" encoding="UTF-8" standalone="no"?>
<svg width="20px" height="4px" viewBox="0 0 20 4" version="1.1" xmlns="http://www.w3.org/2000/svg" xmlns:xlink="http://www.w3.org/1999/xlink">
    <!-- Generator: Sketch 3.8.3 (29802) - http://www.bohemiancoding.com/sketch -->
    <title>Icon</title>
    <desc>Created with Sketch.</desc>
    <defs></defs>
    <g id="Page-1" stroke="none" stroke-width="1" fill="none" fill-rule="evenodd">
        <g id="Artboard-1" transform="translate(-478.000000, -1051.000000)" fill="#43484D">
            <g id="Icon" transform="translate(478.000000, 1051.000000)">
                <path d="M2,4 C3.105,4 4,3.105 4,2 C4,0.895 3.105,0 2,0 C0.895,0 0,0.895 0,2 C0,3.105 0.895,4 2,4" id="Fill-33"></path>
                <path d="M10,4 C11.105,4 12,3.105 12,2 C12,0.895 11.105,0 10,0 C8.895,0 8,0.895 8,2 C8,3.105 8.895,4 10,4" id="Fill-40"></path>
                <path d="M18,4 C19.105,4 20,3.105 20,2 C20,0.895 19.105,0 18,0 C16.895,0 16,0.895 16,2 C16,3.105 16.895,4 18,4" id="Fill-46"></path>
            </g>
        </g>
    </g>
</svg>