<?xml version="1.0" encoding="UTF-8" standalone="no"?>
<svg width="40px" height="46px" viewBox="0 0 40 46" version="1.1" xmlns="http://www.w3.org/2000/svg" xmlns:xlink="http://www.w3.org/1999/xlink">
    <!-- Generator: Sketch 3.8.3 (29802) - http://www.bohemiancoding.com/sketch -->
    <title>Icon</title>
    <desc>Created with Sketch.</desc>
    <defs></defs>
    <g id="Page-1" stroke="none" stroke-width="1" fill="none" fill-rule="evenodd" stroke-linecap="round" stroke-linejoin="round">
        <g id="Artboard-1" transform="translate(-328.000000, -1030.000000)" stroke="#43484D" stroke-width="4">
            <g id="Icon" transform="translate(330.000000, 1032.000000)">
                <path d="M17,20 L0,20 L0,1 C0,0.448 0.448,0 1,0 L17,0 C17.552,0 18,0.448 18,1 L18,19 C18,19.552 17.552,20 17,20 L17,20 Z" id="Stroke-64"></path>
                <path d="M35,24 L19,24 C18.448,24 18,23.552 18,23 L18,4 L35,4 C35.552,4 36,4.448 36,5 L36,23 C36,23.552 35.552,24 35,24 L35,24 Z" id="Stroke-66"></path>
                <path d="M0,20 L0,42" id="Stroke-68"></path>
            </g>
        </g>
    </g>
</svg>