<?xml version="1.0" standalone="no"?>
<!DOCTYPE svg PUBLIC "-//W3C//DTD SVG 20010904//EN"
 "http://www.w3.org/TR/2001/REC-SVG-20010904/DTD/svg10.dtd">
<svg version="1.0" xmlns="http://www.w3.org/2000/svg"
 width="34px" height="34px"
 preserveAspectRatio="xMidYMid meet">
<g transform="translate(0.000000,128.000000) scale(0.100000,-0.100000)"
fill="#000000" stroke="none">
<path d="M1118 1146 c-109 -30 -176 -113 -185 -230 -7 -77 21 -193 72 -303 59
-127 49 -158 -67 -197 -35 -12 -65 -26 -68 -31 -3 -5 44 -26 104 -46 138 -47
166 -72 175 -155 l6 -59 275 0 275 0 -1 77 c-2 129 -25 151 -212 199 -150 39
-181 83 -128 188 124 244 105 462 -46 534 -66 32 -138 41 -200 23z"/>
<path d="M515 1106 c-61 -28 -116 -87 -140 -149 -18 -48 -18 -89 1 -332 6 -77
5 -82 -20 -112 l-26 -31 23 -6 c32 -8 90 10 112 34 27 30 35 25 35 -24 0 -38
-5 -48 -39 -79 -51 -46 -77 -59 -185 -92 -99 -30 -129 -53 -145 -111 -23 -81
-73 -74 499 -74 572 0 522 -7 499 74 -16 58 -46 81 -145 111 -108 33 -134 46
-185 92 -34 31 -39 41 -39 79 0 49 8 54 35 24 22 -24 80 -42 112 -34 l23 6
-26 31 c-25 30 -26 35 -20 112 20 253 20 288 -4 343 -25 58 -82 115 -144 143
-60 27 -157 25 -221 -5z"/>
</g>
</svg>
